<svg xmlns="http://www.w3.org/2000/svg" viewBox="0 0 512 128" width="512" height="128"><defs></defs><g>
<g>
	<g>
		<g transform="matrix(1,0,0,1,-4.649901268,-338.724237546)">
			<path d="M227.72726675493902,412.5791561698946 C227.72726675493902,412.5791561698946 231.11789175493902,412.5791561698946 237.89914175493902,412.5791561698946 C243.39914175493902,412.5791561698946 248.18039175493902,411.58696866989465 252.24289175493902,409.6025936698946 C256.313204254939,407.6182186698946 259.531954254939,405.0088436698946 261.899141754939,401.77446866989465 C264.266329254939,398.54009366989465 265.770235504939,394.9736874198946 266.410860504939,391.07524991989465 C266.668673004939,389.73149991989465 266.797579254939,388.2588436698946 266.797579254939,386.65728116989465 C266.797579254939,381.3447811698946 265.004610504939,377.1377499198946 261.418673004939,374.03618741989465 C257.832735504939,370.9268124198946 252.52023550493902,369.37212491989465 245.48117300493902,369.37212491989465 C245.48117300493902,369.37212491989465 218.89132925493902,369.37212491989465 218.89132925493902,369.37212491989465 C218.89132925493902,369.37212491989465 216.58502382916282,382.4268124234761 216.58502382916282,382.4268124234761 C216.58502382979557,382.42681241989465 233.00070425493902,382.42681241989465 233.00070425493902,382.42681241989465 C233.00070425493902,382.42681241989465 235.97726675493902,382.42681241989465 241.93039175493902,382.42681241989465 C244.61789175493902,382.42681241989465 246.61789175493902,382.98931241989465 247.93039175493902,384.11431241989465 C249.24289175493902,385.23149991989465 249.89914175493902,386.81353116989465 249.89914175493902,388.86040616989465 C249.89914175493902,389.3135311698946 249.83664175493902,390.0518124198946 249.71164175493902,391.07524991989465 C248.61789175493902,396.83306241989465 245.00070425493902,399.71196866989465 238.86007925493902,399.71196866989465 C238.86007925493902,399.71196866989465 233.00070425493902,399.71196866989465 233.00070425493902,399.71196866989465 C233.00070425493902,399.71196866989465 230.02414175493902,399.71196866989465 230.02414175493902,399.71196866989465 C230.0241417548212,399.71196866989465 213.53134294743901,399.71196866989465 213.53134294743901,399.71196866989465 C213.53134294673924,399.7119686782183 211.2581621960395,412.57915617553545 211.2581621960395,412.57915617553545 C211.25816219703603,412.5791561698946 227.72726675493902,412.5791561698946 227.72726675493902,412.5791561698946 ZM226.18215467741038,421.2217342948946 C226.18215467746174,421.2217342948946 209.73132175743902,421.2217342948946 209.73132175743902,421.2217342948946 C209.73132175624315,421.2217342948946 206.98507925493902,436.7666561698946 206.98507925493902,436.7666561698946 C206.98507925493902,436.7666561698946 223.40304800493902,436.7666561698946 223.40304800493902,436.7666561698946 C223.40304800493902,436.7666561698946 226.18215467735905,421.2217342948946 226.18215467741038,421.2217342948946 ZM174.06213804993902,437.4346249198946 C179.37463804993902,437.4346249198946 184.01135679993902,436.5557186698946 187.97229429993902,434.7979061698946 C191.94104429993902,433.0400936698946 194.98010679993902,430.59478116989465 197.08948179993902,427.4619686698946 C199.20666929993902,424.3213436698946 200.26526304993902,420.7666561698946 200.26526304993902,416.7979061698946 C200.26526304993902,413.2119686698946 199.40198179993902,410.1885311698946 197.67541929993902,407.7275936698946 C195.94885679993902,405.2666561698946 193.88245054993902,403.30181241989465 191.47620054993902,401.83306241989465 C189.07776304993902,400.35649991989465 185.99182554993902,398.75493741989465 182.21838804993902,397.02837491989465 C178.44495054993902,395.29399991989465 175.65979429993902,393.77056241989465 173.86291929993902,392.45806241989465 C172.07385679993902,391.14556241989465 171.17932554993902,389.53228116989465 171.17932554993902,387.61821866989465 C171.17932554993902,385.69634366989465 171.89807554993902,384.17681241989465 173.33557554993902,383.05962491989465 C174.78088804993902,381.93462491989465 176.65198179993902,381.37212491989465 178.94885679993902,381.37212491989465 C181.12854429993902,381.37212491989465 182.83948179993902,381.93462491989465 184.08166929993902,383.05962491989465 C185.33166929993902,384.17681241989465 185.95666929993902,385.62993741989465 185.95666929993902,387.41899991989465 C185.95666929993902,387.93462491989465 185.92541929993902,388.32134366989465 185.86291929993902,388.57915616989465 C185.86291929993902,388.57915616989465 191.68713804993902,388.57915616989465 203.33557554993902,388.57915616989465 C203.39807554993902,388.12603116989465 203.42932554993902,387.41899991989465 203.42932554993902,386.45806241989465 C203.42932554993902,382.74712491989465 202.43713804993902,379.53228116989465 200.45276304993902,376.81353116989465 C198.47620054993902,374.09478116989465 195.69495054993902,372.0166561698946 192.10901304993902,370.57915616989465 C188.52307554993902,369.1338436698946 184.42541929993902,368.41118741989465 179.81604429993902,368.41118741989465 C174.69885679993902,368.41118741989465 170.15588804993902,369.27837491989465 166.18713804993902,371.01274991989465 C162.21838804993902,372.73931241989465 159.11291929993902,375.23540616989465 156.87073179993902,378.50103116989465 C154.63635679993902,381.75884366989465 153.55041929993902,385.59478116989465 153.61291929993902,390.00884366989465 C153.61291929993902,393.59478116989465 154.47620054993902,396.57134366989465 156.20276304993902,398.93853116989465 C157.92932554993902,401.30571866989465 159.96057554993902,403.1807186698946 162.29651304993902,404.5635311698946 C164.63245054993902,405.93853116989465 167.65588804993902,407.39165616989465 171.36682554993902,408.9229061698946 C175.21057554993902,410.5244686698946 178.04260679993902,411.9658749198946 179.86291929993902,413.2471249198946 C181.69104429993902,414.52837491989465 182.60510679993902,416.19243741989465 182.60510679993902,418.2393124198946 C182.60510679993902,420.22368741989465 181.88245054993902,421.75884366989465 180.43713804993902,422.8447811698946 C178.99963804993902,423.9307186698946 177.03479429993902,424.4736874198946 174.54260679993902,424.4736874198946 C171.78479429993902,424.4736874198946 169.73401304993902,423.7705624198946 168.39026304993902,422.3643124198946 C167.04651304993902,420.9580624198946 166.47229429993902,419.04009366989465 166.66760679993902,416.6104061698946 C166.66760679993902,416.6104061698946 160.97229429993902,416.6104061698946 149.58166929993902,416.6104061698946 C149.44885679993902,417.7588436698946 149.38245054993902,418.6221249198946 149.38245054993902,419.2002499198946 C149.38245054993902,425.0205624198946 151.67151304993902,429.51665616989465 156.24963804993902,432.6885311698946 C160.82776304993902,435.8525936698946 166.76526304993902,437.4346249198946 174.06213804993902,437.4346249198946 ZM306.346111742439,369.37212491989465 C306.346111742439,369.37212491989465 278.795330492439,369.37212491989465 278.795330492439,369.37212491989465 C278.795330492439,369.37212491989465 266.889080492439,436.7666561698946 266.889080492439,436.7666561698946 C266.889080492439,436.7666561698946 283.307049242439,436.7666561698946 283.307049242439,436.7666561698946 C283.307049242439,436.7666561698946 287.818767992439,411.3252499198946 287.818767992439,411.3252499198946 C287.818767992439,411.3252499198946 291.756267992439,411.3252499198946 291.756267992439,411.3252499198946 C291.756267992439,411.3252499198946 301.260174242439,436.7666561698946 301.260174242439,436.7666561698946 C301.260174242439,436.7666561698946 319.787517992439,436.7666561698946 319.787517992439,436.7666561698946 C319.787517992439,436.7666561698946 316.170330492439,427.8721249198946 308.935955492439,410.0830624198946 C314.185955492439,408.6064999198946 318.377361742439,406.1104061698946 321.510174242439,402.59478116989465 C324.650799242439,399.07134366989465 326.603924242439,395.07134366989465 327.369549242439,390.59478116989465 C327.627361742439,389.3135311698946 327.756267992439,387.93462491989465 327.756267992439,386.45806241989465 C327.756267992439,381.4033749198946 325.932049242439,377.29399991989465 322.283611742439,374.12993741989465 C318.635174242439,370.95806241989465 313.322674242439,369.37212491989465 306.346111742439,369.37212491989465 ZM310.564861742439,391.26274991989465 C310.057049242439,393.95024991989465 308.920330492439,396.03228116989465 307.154705492439,397.50884366989465 C305.396892992439,398.97759366989465 303.014080492439,399.71196866989465 300.006267992439,399.71196866989465 C300.006267992439,399.71196866989465 289.834392992439,399.71196866989465 289.834392992439,399.71196866989465 C289.834392992439,399.71196866989465 292.810955492439,382.81353116989465 292.810955492439,382.81353116989465 C292.810955492439,382.81353116989465 296.201580492439,382.81353116989465 302.982830492439,382.81353116989465 C305.545330492439,382.81353116989465 307.482830492439,383.37603116989465 308.795330492439,384.50103116989465 C310.107830492439,385.61821866989465 310.764080492439,387.20024991989465 310.764080492439,389.24712491989465 C310.764080492439,389.56743741989465 310.697674242439,390.2393124198946 310.564861742439,391.26274991989465 ZM357.805294479939,369.37212491989465 C357.805294479939,369.37212491989465 341.387325729939,369.37212491989465 341.387325729939,369.37212491989465 C341.387325729939,369.37212491989465 329.48107572993905,436.7666561698946 329.48107572993905,436.7666561698946 C329.48107572993905,436.7666561698946 345.899044479939,436.7666561698946 345.899044479939,436.7666561698946 C345.899044479939,436.7666561698946 357.805294479939,369.37212491989465 357.805294479939,369.37212491989465 ZM418.094051807439,436.7666561698946 C418.094051807439,436.7666561698946 429.988583057439,369.37212491989465 429.988583057439,369.37212491989465 C429.988583057439,369.37212491989465 413.582333057439,369.37212491989465 413.582333057439,369.37212491989465 C413.582333057439,369.37212491989465 406.187801807439,411.1377499198946 406.187801807439,411.1377499198946 C406.187801807439,411.1377499198946 386.125301807439,369.37212491989465 386.125301807439,369.37212491989465 C386.125301807439,369.37212491989465 369.707333057439,369.37212491989465 369.707333057439,369.37212491989465 C369.707333057439,369.37212491989465 357.801083057439,436.7666561698946 357.801083057439,436.7666561698946 C357.801083057439,436.7666561698946 374.219051807439,436.7666561698946 374.219051807439,436.7666561698946 C374.219051807439,436.7666561698946 381.613583057439,395.20024991989465 381.613583057439,395.20024991989465 C381.613583057439,395.20024991989465 401.676083057439,436.7666561698946 401.676083057439,436.7666561698946 C401.676083057439,436.7666561698946 418.094051807439,436.7666561698946 418.094051807439,436.7666561698946 ZM490.37981077743905,369.37212491989465 C490.37981077743905,369.37212491989465 438.25481077743905,369.37212491989465 438.25481077743905,369.37212491989465 C438.25481077743905,369.37212491989465 435.94621702743905,382.33306241989465 435.94621702743905,382.33306241989465 C435.94621702743905,382.33306241989465 453.80559202743905,382.33306241989465 453.80559202743905,382.33306241989465 C453.80559202743905,382.33306241989465 444.20793577743905,436.7666561698946 444.20793577743905,436.7666561698946 C444.20793577743905,436.7666561698946 460.61418577743905,436.7666561698946 460.61418577743905,436.7666561698946 C460.61418577743905,436.7666561698946 470.22356077743905,382.33306241989465 470.22356077743905,382.33306241989465 C470.22356077743905,382.33306241989465 488.16496702743905,382.33306241989465 488.16496702743905,382.33306241989465 C488.16496702743905,382.33306241989465 490.37981077743905,369.37212491989465 490.37981077743905,369.37212491989465 Z" fill="#038ab1"/>
		</g>
		<g transform="matrix(1,0,0,1,-4.649901268,-338.724237546)">
			<g>
				<path d="M78.30497527495737,355.33925402893755 C104.451287874757,355.33925402893755 125.6899587916122,376.57792494579274 125.6899587916122,402.72423754559236 C125.6899587916122,428.870550145392 104.451287874757,450.1092210622472 78.30497527495737,450.1092210622472 C52.15866267515774,450.1092210622472 30.919991758302544,428.870550145392 30.919991758302544,402.72423754559236 C30.919991758302544,376.57792494579274 52.15866267515774,355.33925402893755 78.30497527495737,355.33925402893755 Z" fill="#038ab1" opacity="0"/>
			</g>
			<g>
				<path d="M35.1134051062591,383.225159129484 C35.113405106260245,383.2251591294846 54.61248351648209,402.72423753970645 54.61248351648209,402.72423753970645 C54.61248351648209,402.72423753970645 41.90759024228809,415.3955023346308 35.10496044688088,422.20465422801936 C42.54255218517678,438.65039373127354 59.09986218007064,450.1092210616553 78.30497527466153,450.1092210616553 C95.82388866451399,450.1092210616553 111.13953936817751,440.5742195022869 119.33941447131487,426.4167292978873 C119.33941447131281,426.4167292978859 101.99746703284097,426.4167292978859 101.99746703284097,426.4167292978859 C101.99746703284097,426.4167292978859 125.68995879102043,402.72423753970645 125.68995879102043,402.72423753970645 C125.68995879102043,402.72423753970645 101.99746703284097,379.03174578152704 101.99746703284097,379.03174578152704 C101.99746703284097,379.03174578152704 119.33941446483752,379.03174578152704 119.33941446483752,379.03174578152704 C111.13953936229747,364.87425558464525 95.82388866115103,355.33925402893755 78.30497527466153,355.33925402893755 C59.107127320570406,355.33925402893755 42.55507955966879,366.7894134338866 35.1134051062591,383.225159129484 ZM54.61248351648209,379.03174578711696 C54.61248351648209,379.03174578711696 78.30497527466153,379.03174578711696 78.30497527466153,379.03174578711696 C78.30497527466153,379.03174578711696 101.99746703284097,402.72423754529643 101.99746703284097,402.72423754529643 C101.99746703284097,402.72423754529643 78.2420973732315,426.41672930347585 78.30497527466153,426.41672930347585 C78.30497527466153,426.41672930347585 54.61248351648209,426.41672930347585 54.61248351648209,426.41672930347585 C54.61248351648209,426.41672930347585 78.30497527466153,402.72423754529643 78.30497527466153,402.72423754529643 C78.30497527466153,402.72423754529643 54.61248351648209,379.03174578711696 54.61248351648209,379.03174578711696 Z" fill="#038ab1"/>
			</g>
		</g>
	</g>
</g></g></svg>